<svg width="256" height="256" viewBox="0 0 256 256" shape-rendering="geometricPrecision" version="1.1" xmlns="http://www.w3.org/2000/svg"><desc>Created by https://guilds.gw2w2w.com/</desc><rect x="0" y="0" width="256" height="256" fill="none" stroke="none" /><g transform="matrix(-1,0,0,1,256,0)">
<g fill="rgb(26,24,27)" stroke="rgb(26,24,27)" stroke-width=".05%" stroke-opacity="50%" opacity="0.7"><path d=" M 108.06 30.10 C 110.36 23.80 116.27 20.04 120.75 15.39 C 121.85 22.03 121.58 28.79 120.33 35.38 C 125.69 35.27 131.05 35.28 136.40 35.38 C 135.13 28.81 135.02 22.06 135.97 15.43 C 140.64 19.91 146.21 23.87 148.85 29.99 C 168.14 34.14 186.53 43.48 200.14 57.93 C 212.32 69.78 220.94 85.07 225.47 101.41 C 227.28 108.96 234.76 112.84 239.35 118.56 C 232.73 119.88 225.96 119.41 219.36 118.24 C 219.73 124.45 219.73 130.68 219.23 136.88 C 226.02 136.33 232.84 136.06 239.62 136.82 C 235.13 142.65 227.34 146.44 226.12 154.30 C 218.26 186.61 192.89 213.87 161.41 224.38 C 157.17 225.93 152.53 226.33 148.52 228.43 C 144.06 231.83 140.63 236.38 136.46 240.12 C 135.01 233.64 135.39 226.98 136.66 220.51 C 131.20 220.58 125.75 220.52 120.30 220.38 C 121.54 226.97 121.96 233.73 120.58 240.33 C 117.82 237.80 115.10 235.21 112.54 232.47 C 110.37 230.26 108.22 227.67 105.02 227.02 C 97.96 225.10 90.79 223.25 84.28 219.79 C 75.78 215.33 67.24 210.49 60.47 203.56 C 55.47 198.50 50.15 193.66 46.23 187.68 C 40.13 178.57 34.67 168.81 32.05 158.08 C 30.95 154.66 30.79 150.64 28.09 147.98 C 24.57 144.39 20.85 141.00 17.46 137.27 C 24.12 136.00 30.92 136.41 37.57 137.54 C 37.19 131.12 37.15 124.69 37.62 118.27 C 30.98 119.42 24.18 119.89 17.54 118.51 C 21.44 114.06 26.18 110.38 29.88 105.76 C 32.57 100.08 33.37 93.67 36.10 87.98 C 39.33 81.11 43.31 74.62 47.51 68.31 C 51.85 62.45 57.32 57.57 62.46 52.44 C 67.21 47.61 73.24 44.43 78.97 40.95 C 87.92 35.64 97.86 32.11 108.06 30.10 M 148.07 33.19 C 148.24 35.59 148.41 38.00 148.60 40.40 C 150.99 41.52 153.39 42.62 155.80 43.71 C 158.63 41.89 161.42 40.02 164.15 38.05 C 158.91 36.05 153.52 34.49 148.07 33.19 M 93.11 37.99 C 96.52 40.40 100.57 44.44 105.07 42.05 C 109.05 41.04 108.38 36.34 108.85 33.17 C 103.51 34.45 98.23 36.00 93.11 37.99 M 90.84 38.85 C 90.01 42.33 90.89 45.90 91.37 49.36 C 93.75 47.94 96.12 46.50 98.49 45.06 C 96.49 42.64 94.57 40.10 92.04 38.22 L 90.84 38.85 M 158.85 45.25 C 161.32 46.86 163.80 48.44 166.29 50.01 C 166.73 46.62 167.22 43.24 167.70 39.86 C 167.00 39.46 165.60 38.65 164.90 38.25 C 162.87 40.57 160.86 42.91 158.85 45.25 M 68.39 52.14 C 69.70 55.80 71.07 59.43 72.52 63.04 C 74.97 61.10 77.41 59.14 79.84 57.18 C 76.83 55.08 73.83 52.96 70.88 50.77 C 75.62 52.05 80.43 54.24 85.45 53.51 C 88.31 49.52 88.70 44.42 89.75 39.77 C 81.80 42.28 74.97 47.17 68.39 52.14 M 167.86 39.84 C 168.08 44.71 169.34 49.45 171.33 53.89 C 176.51 53.75 181.56 52.41 186.25 50.21 C 180.48 46.16 174.55 42.21 167.86 39.84 M 116.82 48.85 C 113.39 52.73 112.06 57.99 109.24 62.29 C 97.73 81.18 81.47 97.19 62.32 108.27 C 58.71 110.43 54.63 111.77 51.26 114.30 C 50.21 115.97 50.16 118.05 49.88 119.95 C 49.33 127.11 49.58 134.32 50.69 141.42 C 78.64 154.29 102.22 176.92 115.20 204.92 C 116.18 207.76 119.49 207.77 121.98 208.00 C 128.36 208.12 134.82 207.83 141.09 206.55 C 147.49 191.32 157.48 177.77 169.42 166.43 C 180.00 155.84 192.66 147.51 206.29 141.38 C 207.91 132.29 207.24 122.93 205.72 113.88 C 184.18 104.65 165.91 88.65 152.32 69.70 C 147.53 63.16 144.04 55.83 140.38 48.64 C 132.63 47.60 124.42 46.57 116.82 48.85 M 178.07 57.32 C 179.76 60.05 182.70 61.57 185.29 63.31 C 186.43 60.06 187.53 56.79 188.55 53.50 C 188.51 58.28 188.63 63.06 189.17 67.81 C 194.17 68.52 199.24 68.64 204.28 68.21 C 199.88 61.27 193.50 55.93 187.00 51.03 C 183.95 53.02 180.75 54.84 178.07 57.32 M 55.44 101.23 C 65.97 96.60 75.15 89.37 83.42 81.46 C 91.47 73.11 98.66 63.74 103.45 53.12 C 82.79 63.28 65.31 80.37 55.44 101.23 M 153.13 53.02 C 157.65 62.31 163.41 71.02 170.57 78.49 C 179.35 87.83 189.54 96.11 201.39 101.21 C 191.25 80.38 173.93 63.19 153.13 53.02 M 52.78 68.33 C 57.67 68.65 62.60 68.49 67.43 67.60 C 67.59 62.73 67.62 57.84 67.26 52.97 C 61.85 57.47 56.29 62.11 52.78 68.33 M 50.96 68.11 C 51.56 72.67 54.71 76.15 57.28 79.75 C 59.21 77.29 61.15 74.83 63.09 72.38 C 59.24 70.45 55.17 68.99 50.96 68.11 M 194.01 72.74 C 196.00 75.29 197.98 77.85 199.99 80.38 C 202.06 77.46 204.12 74.53 206.17 71.59 C 204.55 76.38 203.28 81.32 203.16 86.41 C 207.20 88.06 211.40 89.31 215.69 90.19 C 212.70 90.59 209.73 91.05 206.75 91.52 C 208.27 94.24 209.77 96.97 211.30 99.69 C 213.37 97.84 215.35 95.88 217.02 93.65 C 217.47 94.12 217.91 94.59 218.35 95.08 C 215.20 97.73 213.22 101.44 213.04 105.58 C 216.42 106.25 219.83 106.69 223.26 106.94 C 222.33 102.33 220.73 97.86 220.25 93.16 C 219.84 93.08 219.03 92.93 218.62 92.85 C 216.04 83.93 210.88 76.03 205.14 68.82 C 201.38 69.98 197.67 71.28 194.01 72.74 M 39.72 89.88 C 44.52 89.04 49.21 87.66 53.64 85.65 C 52.57 81.04 51.76 76.31 49.79 71.97 C 45.07 77.00 41.71 83.29 39.72 89.88 M 37.62 90.48 C 39.34 94.19 42.44 96.85 45.70 99.17 C 47.23 96.40 48.71 93.61 50.13 90.78 C 45.96 90.50 41.79 90.34 37.62 90.48 M 36.78 95.29 C 35.66 99.14 34.51 102.99 33.34 106.82 C 36.68 106.64 40.01 106.32 43.32 105.84 C 42.72 101.93 40.90 98.41 38.63 95.21 C 38.17 95.23 37.24 95.27 36.78 95.29 M 33.05 148.73 C 34.07 154.03 35.52 159.24 37.70 164.19 C 40.47 159.94 45.77 154.96 42.48 149.57 C 39.33 149.34 36.19 149.03 33.05 148.73 M 212.77 153.05 C 212.37 157.03 215.80 160.13 217.56 163.42 C 215.22 161.52 212.88 159.61 210.55 157.71 C 209.13 160.50 207.82 163.35 206.64 166.25 C 210.53 166.52 214.43 166.71 218.33 166.79 C 220.80 160.83 222.98 154.71 223.97 148.31 C 220.19 149.12 213.90 148.07 212.77 153.05 M 153.26 202.40 C 174.25 192.44 191.80 175.06 201.68 154.01 C 180.77 164.21 163.63 181.62 153.26 202.40 M 55.44 154.28 C 65.10 175.35 82.73 192.41 103.40 202.67 C 93.67 181.63 76.10 164.58 55.44 154.28 M 46.40 157.92 C 43.73 160.20 41.07 162.47 38.39 164.74 C 38.47 165.64 38.55 166.53 38.64 167.43 C 42.52 167.01 46.41 166.61 50.31 166.30 C 49.11 163.46 47.80 160.67 46.40 157.92 M 203.06 171.63 C 203.65 176.76 204.89 181.79 206.88 186.55 C 211.76 180.84 215.30 174.13 218.04 167.17 C 212.93 168.23 207.92 169.72 203.06 171.63 M 39.68 168.40 C 41.85 175.20 45.76 181.25 50.10 186.86 C 51.76 182.15 52.97 177.31 53.77 172.39 C 49.24 170.54 44.51 169.18 39.68 168.40 M 199.54 178.17 C 197.53 180.18 195.92 182.56 194.23 184.84 C 198.33 186.57 202.57 188.00 206.96 188.83 C 204.97 185.04 203.33 180.52 199.54 178.17 M 50.35 188.52 C 54.82 188.82 58.87 186.49 62.98 185.11 C 61.06 182.66 59.12 180.22 57.15 177.81 C 54.70 181.25 52.02 184.60 50.35 188.52 M 189.45 189.39 C 188.72 194.41 188.52 199.50 189.04 204.56 C 195.71 200.91 200.85 194.98 205.03 188.74 C 199.83 188.50 194.61 188.64 189.45 189.39 M 52.68 190.47 C 57.19 195.84 62.17 200.82 67.57 205.30 C 68.65 200.31 68.44 195.19 67.52 190.20 C 62.60 189.34 57.57 189.40 52.68 190.47 M 72.39 194.76 C 70.64 198.75 68.66 202.86 69.06 207.35 C 72.80 205.24 76.28 202.72 79.60 200.00 C 77.22 198.23 74.81 196.49 72.39 194.76 M 177.27 200.08 C 180.89 202.81 184.62 205.43 188.83 207.17 C 188.28 202.67 186.63 198.44 184.75 194.35 C 182.26 196.26 179.77 198.17 177.27 200.08 M 71.84 207.77 C 76.63 212.84 83.32 215.68 89.68 218.26 C 88.87 213.40 87.47 208.68 85.62 204.13 C 80.89 204.66 76.10 205.51 71.84 207.77 M 168.19 218.27 C 174.60 214.94 181.36 211.96 186.66 206.93 C 181.79 205.18 176.78 203.88 171.66 203.15 C 169.59 207.93 167.95 212.99 168.19 218.27 M 91.50 206.95 C 90.64 211.38 89.97 215.98 91.41 220.37 C 94.37 217.55 96.97 214.40 99.44 211.15 C 96.79 209.76 94.14 208.35 91.50 206.95 M 157.82 210.82 C 160.00 213.51 162.23 216.18 164.50 218.81 C 165.57 218.66 166.65 218.52 167.72 218.38 C 167.22 214.49 166.71 210.60 166.28 206.71 C 163.43 208.02 160.61 209.38 157.82 210.82 M 92.73 219.64 C 97.87 222.01 103.36 223.44 108.84 224.75 C 108.53 220.83 109.57 214.69 104.44 213.55 C 99.85 213.37 96.36 217.34 92.73 219.64 M 148.55 215.52 C 148.45 218.60 148.30 221.68 148.18 224.76 C 153.70 223.28 159.33 222.01 164.44 219.38 C 161.33 217.27 158.37 214.73 154.77 213.50 C 152.46 212.77 150.49 214.59 148.55 215.52 Z" /></g>
</g><g >
<g fill="rgb(189,186,185)" stroke="rgb(189,186,185)" stroke-width=".05%" stroke-opacity="50%"><path d=" M 194.77 37.76 C 193.98 35.63 195.52 33.66 196.65 31.98 C 197.52 31.99 199.27 32.01 200.14 32.03 C 200.47 32.77 200.77 33.53 201.04 34.31 C 200.06 34.98 199.08 35.63 198.09 36.27 C 201.04 40.63 206.21 42.53 209.72 46.32 C 215.83 52.64 220.50 61.10 219.97 70.13 C 219.77 78.11 215.32 85.29 210.07 91.02 C 207.46 93.60 204.52 96.76 200.51 96.49 C 196.67 97.57 192.91 99.67 188.80 99.02 C 183.34 98.21 178.41 95.20 174.43 91.48 C 173.01 88.95 172.87 85.89 171.88 83.17 C 169.05 81.16 165.64 79.91 162.37 81.83 C 159.41 78.81 157.15 74.91 153.18 73.07 C 151.33 73.67 149.46 74.23 147.57 74.73 C 146.19 72.69 145.76 69.76 148.11 68.22 C 153.09 65.09 159.51 64.83 165.17 65.81 C 170.63 66.48 174.56 71.08 180.05 71.68 C 188.49 72.84 198.23 72.62 205.09 66.88 C 208.20 64.60 207.20 60.43 207.18 57.12 C 207.21 53.51 205.69 50.11 203.31 47.46 C 202.61 49.29 202.20 51.32 200.79 52.79 C 195.80 58.55 191.38 64.80 186.17 70.36 C 183.82 70.24 181.47 70.04 179.22 69.36 C 180.10 64.54 184.87 62.30 187.27 58.41 C 190.49 53.60 194.43 49.34 198.09 44.87 C 199.40 45.22 200.71 45.57 202.04 45.89 C 199.87 42.94 195.80 41.50 194.77 37.76 M 200.86 74.12 C 195.48 76.74 189.34 77.22 183.45 76.71 C 184.52 78.46 185.27 80.97 187.18 81.89 C 196.08 81.62 205.44 76.78 208.97 68.24 C 206.15 70.05 204.02 72.83 200.86 74.12 M 205.34 78.27 C 201.10 82.38 195.24 83.83 189.68 85.15 C 189.76 86.35 189.94 87.53 190.20 88.71 C 192.99 90.41 196.64 90.05 199.40 88.50 C 205.33 83.22 212.10 77.55 213.26 69.18 C 210.44 72.05 208.50 75.71 205.34 78.27 M 203.06 89.85 C 199.82 91.38 196.25 92.39 193.57 94.89 C 203.94 96.03 211.22 86.53 214.30 77.78 C 210.72 81.93 208.01 87.09 203.06 89.85 Z" />
<path d=" M 202.20 37.05 C 205.58 32.44 212.32 36.53 212.65 41.34 C 212.17 43.59 209.59 43.18 207.87 42.95 C 205.02 42.18 203.19 39.70 202.20 37.05 Z" />
<path d=" M 165.31 84.04 C 165.96 84.00 167.27 83.93 167.92 83.89 C 169.08 85.48 170.12 87.15 170.83 88.98 C 167.72 95.80 161.36 100.21 157.29 106.36 C 154.94 109.96 151.55 112.74 149.31 116.42 C 147.82 118.82 145.21 120.19 143.61 122.51 C 115.79 157.18 87.25 191.32 57.11 224.02 C 55.15 225.71 52.93 227.09 50.75 228.49 C 63.58 206.34 81.29 187.65 96.22 166.98 C 100.83 162.93 103.68 157.37 108.16 153.20 C 110.19 151.21 111.46 148.62 113.19 146.40 C 118.38 139.58 124.72 133.69 129.31 126.43 C 141.85 112.76 152.68 97.62 165.31 84.04 Z" /></g>
<g fill="rgb(135,0,10)" stroke="rgb(135,0,10)" stroke-width=".05%" stroke-opacity="50%"><path d=" M 63.11 42.31 C 67.08 40.60 71.58 39.51 75.54 41.90 C 73.95 43.46 72.54 45.27 70.63 46.45 C 67.99 46.43 65.40 45.74 62.83 45.18 C 62.90 44.46 63.04 43.03 63.11 42.31 Z" />
<path d=" M 57.55 41.96 C 57.98 41.94 58.82 41.91 59.25 41.89 C 60.19 43.55 60.87 45.46 62.34 46.75 C 64.43 47.88 66.87 48.15 69.12 48.87 C 69.60 51.21 70.18 53.52 70.89 55.80 C 69.93 60.15 68.68 64.52 65.93 68.11 C 65.32 67.31 64.72 66.52 64.11 65.73 C 65.54 61.46 67.51 56.42 64.73 52.26 C 63.32 49.61 60.17 49.10 57.48 48.77 C 56.37 48.03 55.27 47.27 54.18 46.51 C 55.33 45.02 56.46 43.50 57.55 41.96 Z" />
<path d=" M 71.92 47.92 C 73.87 45.93 75.56 43.01 78.67 42.93 C 78.86 44.66 78.26 46.34 78.15 48.06 C 78.37 50.04 79.21 51.89 79.86 53.77 C 78.77 58.33 76.89 62.62 74.76 66.79 C 72.88 70.41 72.85 74.57 72.33 78.52 C 69.99 73.14 69.87 67.07 71.48 61.48 C 72.79 57.06 73.20 52.39 71.92 47.92 Z" />
<path d=" M 44.44 58.78 C 45.26 53.79 47.41 48.90 51.49 45.75 C 52.75 47.13 54.02 48.51 55.32 49.87 C 50.68 51.60 48.87 56.76 44.44 58.78 Z" />
<path d=" M 58.16 50.93 C 61.24 50.40 63.39 53.04 64.38 55.62 C 66.40 58.93 62.10 61.53 60.61 64.15 C 62.45 64.75 63.65 66.02 63.20 68.06 C 63.11 74.30 58.44 78.98 54.70 83.46 C 56.99 82.78 59.53 81.97 60.74 79.70 C 62.91 75.84 64.32 71.46 67.67 68.37 C 67.99 71.48 68.31 74.59 69.00 77.64 C 66.37 80.16 63.44 82.48 61.77 85.80 C 58.26 92.76 49.40 92.57 43.84 97.07 C 43.93 94.28 42.77 90.42 45.55 88.58 C 48.48 86.92 51.75 85.98 54.72 84.42 C 48.96 84.42 42.80 81.58 41.16 75.64 C 47.02 75.20 53.94 72.69 54.95 66.05 C 52.19 67.14 49.27 67.90 46.32 67.16 C 45.75 65.72 45.18 64.29 44.64 62.84 C 46.70 62.73 48.77 62.68 50.84 62.68 C 50.32 60.64 49.48 58.53 50.02 56.41 C 51.17 55.34 52.50 54.50 53.78 53.62 C 54.99 55.30 56.14 57.01 57.32 58.72 C 57.89 56.15 57.36 53.44 58.16 50.93 M 52.44 61.92 C 53.52 62.94 54.60 63.96 55.69 64.98 C 55.96 63.21 56.23 61.44 56.49 59.67 C 55.14 60.41 53.79 61.17 52.44 61.92 Z" />
<path d=" M 75.02 71.02 C 76.58 65.89 78.85 60.99 80.99 56.09 C 84.53 61.73 88.20 68.08 87.29 75.01 C 86.00 80.59 82.82 85.59 78.62 89.46 C 75.46 83.97 73.09 77.34 75.02 71.02 Z" />
<path d=" M 30.72 77.61 C 32.48 71.08 37.82 66.44 43.39 63.05 C 43.91 66.52 46.34 69.03 48.64 71.47 C 46.82 72.61 44.72 73.86 42.49 73.16 C 41.33 71.77 40.41 70.20 39.39 68.70 C 37.04 75.21 41.17 81.87 46.62 85.27 C 44.99 87.49 43.33 89.70 41.76 91.97 C 38.81 90.78 35.65 90.37 32.48 90.57 C 30.35 86.65 29.22 81.96 30.72 77.61 Z" />
<path d=" M 104.67 69.67 C 110.67 62.14 122.69 60.71 130.36 66.54 C 122.66 75.73 125.97 88.73 120.84 98.95 C 119.44 101.90 116.52 103.61 113.69 104.97 C 113.42 99.21 117.02 94.51 118.52 89.19 C 116.87 90.94 115.40 92.85 113.84 94.68 C 111.92 89.62 114.47 84.57 116.27 79.90 C 114.78 81.82 113.33 83.75 111.88 85.70 C 110.80 80.21 112.09 74.78 113.16 69.42 C 108.22 74.22 109.43 81.78 110.41 87.88 C 109.05 86.68 107.69 85.47 106.29 84.31 C 107.72 87.52 110.45 90.34 110.49 94.03 C 110.63 96.54 110.28 99.04 110.03 101.53 C 104.43 95.23 100.79 86.63 102.13 78.11 C 102.63 75.23 102.65 71.99 104.67 69.67 Z" />
<path d=" M 63.34 86.37 C 64.77 82.86 67.88 80.57 71.05 78.72 C 71.53 78.99 72.49 79.53 72.96 79.80 C 74.01 83.59 75.83 87.06 77.79 90.44 C 77.06 91.80 76.35 93.16 75.64 94.53 C 82.51 96.31 89.63 95.88 96.66 96.19 C 92.65 104.73 78.78 103.34 74.82 95.47 C 67.88 98.29 60.19 97.06 53.12 95.41 C 56.61 92.50 61.50 90.87 63.34 86.37 Z" />
<path d=" M 85.37 85.74 C 85.90 84.12 86.47 82.52 87.06 80.93 C 88.33 82.17 89.59 83.44 90.81 84.75 C 89.02 85.19 87.20 85.51 85.37 85.74 Z" />
<path d=" M 84.62 87.44 C 86.95 86.62 89.50 86.95 91.93 86.81 C 93.32 88.68 94.63 90.61 95.64 92.71 C 90.20 95.37 84.07 94.00 78.51 92.56 C 80.48 90.79 82.29 88.76 84.62 87.44 Z" />
<path d=" M 98.78 94.06 C 100.38 94.93 101.88 95.96 103.26 97.14 C 103.12 97.99 102.84 99.68 102.70 100.53 C 106.54 105.39 110.73 110.09 116.11 113.28 C 118.85 110.60 121.39 106.90 125.75 107.28 C 124.89 110.75 121.23 114.08 122.91 117.79 C 124.57 120.20 127.04 121.89 129.01 124.03 C 127.56 125.88 126.07 127.70 124.55 129.49 C 123.16 128.25 121.81 126.96 120.46 125.67 C 117.45 127.05 114.86 129.74 111.43 129.95 C 110.46 126.11 113.72 123.48 116.20 121.19 C 111.16 115.57 104.59 111.72 98.67 107.14 C 94.72 106.52 90.43 107.55 86.84 105.25 C 89.64 103.50 92.93 103.12 96.01 102.15 C 97.38 101.09 98.42 99.68 99.59 98.42 C 99.39 97.33 98.98 95.15 98.78 94.06 Z" />
<path d=" M 57.73 131.78 C 62.17 120.77 72.26 112.32 83.96 110.19 C 91.41 109.06 100.07 110.00 105.55 115.71 C 101.38 115.97 97.47 117.46 93.45 118.42 C 90.36 119.38 88.36 116.07 85.95 114.81 C 86.90 116.34 87.83 117.88 88.75 119.43 C 84.81 119.66 80.39 117.57 76.84 120.01 C 75.05 121.24 74.17 123.36 72.82 125.00 C 75.84 122.73 78.98 120.21 83.00 120.38 C 82.55 122.48 82.17 124.61 82.25 126.78 C 83.32 125.32 84.31 123.82 85.26 122.30 C 88.27 121.48 91.32 120.85 94.41 120.44 C 93.47 122.12 92.52 123.79 91.62 125.50 C 95.61 122.01 99.84 117.02 105.80 118.69 C 100.89 124.36 96.33 130.72 89.62 134.41 C 83.66 136.33 77.72 133.25 71.95 132.00 C 67.32 130.60 62.41 130.72 57.73 131.78 Z" />
<path d=" M 134.44 138.07 C 135.41 136.52 136.70 135.21 137.96 133.90 C 142.42 135.97 145.60 139.76 149.07 143.09 C 152.10 140.19 155.37 136.34 160.09 137.73 C 158.02 141.42 155.10 145.38 156.21 149.87 C 157.46 153.80 160.64 156.66 163.32 159.64 C 168.89 165.10 173.56 171.37 179.06 176.89 C 181.16 175.08 183.31 173.33 185.62 171.78 C 186.30 172.23 187.67 173.12 188.36 173.57 C 187.20 176.44 184.13 179.28 185.37 182.56 C 188.15 186.43 192.72 188.50 195.75 192.17 C 200.56 198.11 208.34 201.08 212.16 207.90 C 213.95 210.77 215.55 214.90 212.50 217.55 C 211.04 215.38 209.99 212.67 207.55 211.40 C 205.52 210.49 203.29 210.22 201.12 209.83 C 200.11 206.46 199.75 202.55 197.12 199.96 C 190.22 193.30 181.96 188.31 173.97 183.10 C 168.09 177.94 163.10 171.87 157.88 166.06 C 155.09 166.96 152.51 168.37 150.46 170.49 C 149.62 169.57 148.79 168.66 147.95 167.74 C 149.19 165.00 150.81 162.45 152.67 160.09 C 149.46 154.87 145.61 150.05 141.22 145.77 C 138.87 143.29 136.12 141.09 134.44 138.07 Z" /></g>


</g></svg>